mtllib material.mtl
o Default
v -2 0.25 0
v -2 0 -1.9997999668121338
v 0 0 -1.9997999668121338
v 0 0.25 0
v -2 0 -1.9997999668121338
v 0 0 -3.9995999336242676
v -2 0 -3.9995999336242676
v 0 0 -1.9997999668121338
v -6 0.25 0
v -4 0 -1.9997999668121338
v -6 0 -1.9997999668121338
v -4 0.25 0
v -4 0.25 0
v -2 0 -1.9997999668121338
v -4 0 -1.9997999668121338
v -2 0.25 0
v -4 0 -1.9997999668121338
v -2 0 -3.9995999336242676
v -4 0 -3.9995999336242676
v -2 0 -1.9997999668121338
v -6 0 -1.9997999668121338
v -4 0 -3.9995999336242676
v -6 0 -3.9995999336242676
v -4 0 -1.9997999668121338
v -8 0 -1.9997999668121338
v -6 0 -3.9995999336242676
v -8 0 -3.9995999336242676
v -6 0 -1.9997999668121338
v -8 0 -3.9995999336242676
v -6 0 -5.9994001388549805
v -8 0 -5.9994001388549805
v -6 0 -3.9995999336242676
v -2 0 -5.9994001388549805
v 0 0.75 -7.9994001388549805
v -2 0.75 -7.9994001388549805
v 0 0 -5.9994001388549805
v -2 0 -3.9995999336242676
v 0 0 -5.9994001388549805
v -2 0 -5.9994001388549805
v 0 0 -3.9995999336242676
v -4 0 -3.9995999336242676
v -2 0 -5.9994001388549805
v -4 0 -5.9994001388549805
v -2 0 -3.9995999336242676
v -6 0 -3.9995999336242676
v -4 0 -5.9994001388549805
v -6 0 -5.9994001388549805
v -4 0 -3.9995999336242676
v -4 0 -5.9994001388549805
v -2 0.75 -7.9994001388549805
v -4 0.75 -7.9994001388549805
v -2 0 -5.9994001388549805
v -6 0 -5.9994001388549805
v -4 0.75 -7.9994001388549805
v -6 0.75 -7.9994001388549805
v -4 0 -5.9994001388549805
v -8 0 -5.9994001388549805
v -6 0.75 -7.9994001388549805
v -8 0.75 -7.9994001388549805
v -6 0 -5.9994001388549805
v -8 0.25 0
v -6 0 -1.9997999668121338
v -8 0 -1.9997999668121338
v -6 0.25 0
vt 0.75 0
vt 1 0.25
vt 0.75 0.25
vt 1 0
vt 1 0.5
vt 0.75 0.5
vt 0.25 0
vt 0.5 0.25
vt 0.25 0.25
vt 0.5 0
vt 0.5 0.5
vt 0.25 0.5
vt 0 0.25
vt 0 0.5
vt 0.25 0.75
vt 0 0.75
vt 0.75 0.75
vt 1 1
vt 0.75 1
vt 1 0.75
vt 0.5 0.75
vt 0.5 1
vt 0.25 1
vt 0 1
vt 0 0
vn 0 0.99227635 -0.12404695
vn 0 1 0
vn 0 0.93632918 0.35112344
g Recipe
usemtl 1
f 1/1/1 4/4/1 3/2/1 2/3/1
f 5/3/2 8/2/2 6/5/2 7/6/2
f 9/7/1 12/10/1 10/8/1 11/9/1
f 13/10/1 16/1/1 14/3/1 15/8/1
f 17/8/2 20/3/2 18/6/2 19/11/2
f 21/9/2 24/8/2 22/11/2 23/12/2
f 25/13/2 28/9/2 26/12/2 27/14/2
f 29/14/2 32/12/2 30/15/2 31/16/2
f 33/17/3 36/20/3 34/18/3 35/19/3
f 37/6/2 40/5/2 38/20/2 39/17/2
f 41/11/2 44/6/2 42/17/2 43/21/2
f 45/12/2 48/11/2 46/21/2 47/15/2
f 49/21/3 52/17/3 50/19/3 51/22/3
f 53/15/3 56/21/3 54/22/3 55/23/3
f 57/16/3 60/15/3 58/23/3 59/24/3
f 61/25/1 64/7/1 62/9/1 63/13/1
