mtllib Table.mtl
o Default
v -8 0 -2
v -8 0 -3.4713746543957313e-8
v -6 0 -3.4713746543957313e-8
v -6 0 -2.000349998474121
v -8 0 -4
v -6 0 -2.000349998474121
v -8 0 -2
v -6 0 -4
v -6 0 -2.000349998474121
v -4 0 -3.4713746543957313e-8
v -6 0 -3.4713746543957313e-8
v -4 0 -2.000349998474121
v -6 0 -4
v -4 0 -2.000349998474121
v -6 0 -2.000349998474121
v -4 0 -4
v -4 0 -2.000349998474121
v -2 0 -3.4713746543957313e-8
v -4 0 -3.4713746543957313e-8
v -2 0 -2.000149965286255
v -4 0 -4
v -2 0 -2.000149965286255
v -4 0 -2.000349998474121
v -2 0 -4
v -2 0 -4
v 0 0 -2
v -2 0 -2.000149965286255
v 0 0 -4
v -2 0 -2.000149965286255
v 0 0 -3.4713746543957313e-8
v -2 0 -3.4713746543957313e-8
v 0 0 -2
v 0 0 -3.4713746543957313e-8
v 0 0.5 -1.9999500513076782
v 0 0.5 0.000050008296966552734
v 0 0 -2
v 0 0 -2
v 0 0.5 -3.9997501373291016
v 0 0.5 -1.9999500513076782
v 0 0 -4
v 0 0 -4
v -2 0.5 -3.9997498989105225
v 0 0.5 -3.9997501373291016
v -2 0 -4
v -2 0 -4
v -4 0.5 -3.9997498989105225
v -2 0.5 -3.9997498989105225
v -4 0 -4
v -4 0 -4
v -6 0.5 -3.9997498989105225
v -4 0.5 -3.9997498989105225
v -6 0 -4
v -6 0 -4
v -8 0.5 -3.9997498989105225
v -6 0.5 -3.9997498989105225
v -8 0 -4
v -8 0 -4
v -8 0.5 -1.9999500513076782
v -8 0.5 -3.9997498989105225
v -8 0 -2
v -8 0 -2
v -8 0.5 0.000049948692321777344
v -8 0.5 -1.9999500513076782
v -8 0 -3.4713746543957313e-8
v -2 0 -3.4713746543957313e-8
v 0 0.5 0.000050008296966552734
v -2 0.5 0.00004999999873689376
v 0 0 -3.4713746543957313e-8
v -4 0 -3.4713746543957313e-8
v -2 0.5 0.00004999999873689376
v -4 0.5 0.00004999999873689376
v -2 0 -3.4713746543957313e-8
v -6 0 -3.4713746543957313e-8
v -4 0.5 0.00004999999873689376
v -6 0.5 0.00004999999873689376
v -4 0 -3.4713746543957313e-8
v -8 0 -3.4713746543957313e-8
v -6 0.5 0.00004999999873689376
v -8 0.5 0.000049948692321777344
v -6 0 -3.4713746543957313e-8
v -8 0.5 -1.9999500513076782
v -6 0.5 -3.9997498989105225
v -8 0.5 -3.9997498989105225
v -6 0.5 -1.9999500513076782
v -6 0.5 -1.9999500513076782
v -4 0.5 -3.9997498989105225
v -6 0.5 -3.9997498989105225
v -4 0.5 -1.9999500513076782
v -4 0.5 -1.9999500513076782
v -2 0.5 -3.9997498989105225
v -4 0.5 -3.9997498989105225
v -2 0.5 -1.9999500513076782
v -2 0.5 -1.9999500513076782
v 0 0.5 -3.9997501373291016
v -2 0.5 -3.9997498989105225
v 0 0.5 -1.9999500513076782
v -2 0.5 0.00004999999873689376
v 0 0.5 -1.9999500513076782
v -2 0.5 -1.9999500513076782
v 0 0.5 0.000050008296966552734
v -4 0.5 0.00004999999873689376
v -2 0.5 -1.9999500513076782
v -4 0.5 -1.9999500513076782
v -2 0.5 0.00004999999873689376
v -6 0.5 0.00004999999873689376
v -4 0.5 -1.9999500513076782
v -6 0.5 -1.9999500513076782
v -4 0.5 0.00004999999873689376
v -8 0.5 0.000049948692321777344
v -6 0.5 -1.9999500513076782
v -8 0.5 -1.9999500513076782
v -6 0.5 0.00004999999873689376
vt 0.25 0.75
vt 0.5 1
vt 0.25 1
vt 0.5 0.75
vt 0 0.6875
vt 0 0.75
vt 0.25 0.6875
vt 0 0.875
vt 0.125 1
vt 0 1
vt 0.125 0.875
vn 0 -1 0
vn 1 0 0
vn -1.2e-7 0.00049973 -0.99999988
vn 0 0.0005002 -0.99999987
vn -1 0 0
vn 0 -0.00010007 0.99999999
vn 0 -0.00010009 0.99999999
vn -3e-8 -0.00009997 1
vn 0 1 0
g Table
usemtl 1
f 1/1/1 4/4/1 3/2/1 2/3/1
f 5/1/1 8/4/1 6/2/1 7/3/1
f 9/1/1 12/4/1 10/2/1 11/3/1
f 13/1/1 16/4/1 14/2/1 15/3/1
f 17/1/1 20/4/1 18/2/1 19/3/1
f 21/1/1 24/4/1 22/2/1 23/3/1
f 25/1/1 28/4/1 26/2/1 27/3/1
f 29/1/1 32/4/1 30/2/1 31/3/1
f 33/5/2 36/7/2 34/1/2 35/6/2
f 37/5/2 40/7/2 38/1/2 39/6/2
f 41/5/3 44/7/4 42/1/3 43/6/3
f 45/5/4 48/7/4 46/1/4 47/6/4
f 49/5/4 52/7/4 50/1/4 51/6/4
f 53/5/4 56/7/4 54/1/4 55/6/4
f 57/5/5 60/7/5 58/1/5 59/6/5
f 61/5/5 64/7/5 62/1/5 63/6/5
f 65/5/6 68/7/7 66/1/6 67/6/6
f 69/5/6 72/7/6 70/1/6 71/6/6
f 73/5/6 76/7/6 74/1/6 75/6/6
f 77/5/8 80/7/6 78/1/8 79/6/8
f 81/8/9 84/11/9 82/9/9 83/10/9
f 85/8/9 88/11/9 86/9/9 87/10/9
f 89/8/9 92/11/9 90/9/9 91/10/9
f 93/8/9 96/11/9 94/9/9 95/10/9
f 97/8/9 100/11/9 98/9/9 99/10/9
f 101/8/9 104/11/9 102/9/9 103/10/9
f 105/8/9 108/11/9 106/9/9 107/10/9
f 109/8/9 112/11/9 110/9/9 111/10/9
